<svg id="svg" version="1.1" xmlns="http://www.w3.org/2000/svg" xmlns:xlink="http://www.w3.org/1999/xlink" width="400" height="390.6569343065694" viewBox="0, 0, 400,390.6569343065694"><g id="svgg"><path id="path0" d="M188.719 0.605 C 73.379 6.083,-12.332 110.770,5.148 224.818 C 21.111 328.974,117.446 401.848,222.044 388.890 C 327.000 375.887,402.484 281.561,392.245 176.204 C 382.236 73.226,292.360 -4.318,188.719 0.605 M277.530 135.630 C 282.215 136.835,285.288 140.982,285.311 146.131 C 285.376 160.270,264.368 160.838,263.712 146.715 C 263.344 138.811,269.790 133.639,277.530 135.630 M101.769 150.663 C 102.200 150.827,103.752 151.863,105.218 152.964 C 110.959 157.276,132.614 171.208,148.613 180.881 C 157.485 186.245,158.549 187.179,158.999 189.993 C 159.462 192.889,157.492 195.177,151.786 198.372 C 140.710 204.573,119.434 218.207,107.299 226.879 C 104.891 228.601,102.361 230.176,101.678 230.379 C 96.753 231.848,89.343 224.795,89.343 218.637 C 89.343 215.778,89.727 215.383,95.399 212.414 C 109.667 204.945,132.133 191.671,132.470 190.511 C 132.674 189.808,111.054 177.015,96.934 169.485 C 89.540 165.541,89.208 165.196,89.389 161.636 C 89.704 155.421,97.082 148.882,101.769 150.663 M284.964 196.224 C 284.964 215.675,285.068 227.095,285.249 227.434 C 285.930 228.706,290.367 228.980,296.943 228.158 C 302.337 227.483,304.340 228.054,306.099 230.767 C 308.859 235.022,306.832 241.429,302.369 242.561 C 301.869 242.688,289.724 242.773,275.380 242.750 L 249.299 242.708 248.080 241.865 C 244.432 239.342,244.091 232.182,247.477 229.208 C 249.114 227.771,250.181 227.606,255.392 227.987 C 264.634 228.661,268.087 228.391,268.634 226.952 C 268.792 226.536,268.905 216.898,268.905 203.788 L 268.905 181.336 267.694 181.010 C 266.932 180.805,264.363 180.719,260.760 180.779 L 255.036 180.875 253.700 180.089 C 249.039 177.352,249.009 169.231,253.649 166.511 L 254.936 165.757 262.244 166.134 C 270.618 166.566,277.466 166.399,284.599 165.589 C 284.888 165.556,284.964 171.855,284.964 196.224 M235.846 250.292 L 235.925 255.766 198.109 255.766 L 160.292 255.766 160.292 250.414 C 160.292 247.470,160.380 244.973,160.488 244.865 C 160.595 244.757,177.577 244.703,198.225 244.743 L 235.766 244.818 235.846 250.292 " stroke="none" fill="#1e1a71" fill-rule="evenodd"></path><path id="path1" d="M270.443 136.029 C 261.144 139.474,261.702 153.986,271.231 156.501 C 279.977 158.809,287.312 151.244,284.658 142.653 C 282.917 137.017,276.212 133.892,270.443 136.029 M96.642 151.431 C 92.107 153.647,88.559 159.809,89.599 163.664 C 90.075 165.429,90.940 166.070,98.007 169.896 C 113.711 178.397,132.701 189.683,132.701 190.515 C 132.701 191.529,110.698 204.560,95.971 212.267 C 92.412 214.129,90.580 215.259,90.158 215.852 C 87.059 220.204,93.544 229.852,99.876 230.310 C 101.922 230.458,102.254 230.291,107.883 226.285 C 120.093 217.596,145.082 201.660,153.225 197.370 C 157.868 194.923,159.762 191.695,158.427 188.500 C 157.761 186.907,156.274 185.699,151.223 182.651 C 132.945 171.620,112.590 158.561,105.271 153.170 C 101.384 150.307,99.656 149.959,96.642 151.431 M254.493 166.261 C 249.344 168.125,248.926 177.399,253.869 180.095 C 254.604 180.496,255.778 180.574,261.168 180.579 C 265.856 180.582,267.769 180.685,268.248 180.959 L 268.905 181.334 268.905 204.223 C 268.905 229.310,269.016 227.740,267.206 228.248 C 266.158 228.542,261.134 228.525,254.859 228.206 C 249.835 227.951,249.692 227.960,248.557 228.598 C 244.498 230.879,244.159 238.555,247.983 241.591 L 249.105 242.482 275.914 242.482 L 302.723 242.482 303.982 241.597 C 309.336 237.834,307.643 228.603,301.505 228.094 C 300.635 228.022,298.824 228.111,297.480 228.293 C 293.383 228.847,288.449 229.012,287.093 228.642 C 284.765 228.005,284.964 230.989,284.964 196.611 L 284.964 165.818 282.263 166.048 C 278.865 166.337,262.096 166.348,258.394 166.065 C 256.307 165.905,255.341 165.953,254.493 166.261 M160.584 250.219 L 160.584 255.474 198.102 255.474 L 235.620 255.474 235.620 250.219 L 235.620 244.964 198.102 244.964 L 160.584 244.964 160.584 250.219 " stroke="none" fill="#fbfbfb" fill-rule="evenodd"></path><path id="path2" d="M263.431 166.333 C 263.712 166.406,264.172 166.406,264.453 166.333 C 264.734 166.259,264.504 166.199,263.942 166.199 C 263.380 166.199,263.150 166.259,263.431 166.333 M262.701 180.644 C 263.062 180.714,263.653 180.714,264.015 180.644 C 264.376 180.574,264.080 180.517,263.358 180.517 C 262.635 180.517,262.339 180.574,262.701 180.644 M263.139 228.522 C 263.420 228.596,263.880 228.596,264.161 228.522 C 264.442 228.449,264.212 228.389,263.650 228.389 C 263.088 228.389,262.858 228.449,263.139 228.522 M289.270 228.819 C 289.631 228.889,290.223 228.889,290.584 228.819 C 290.945 228.750,290.650 228.693,289.927 228.693 C 289.204 228.693,288.909 228.750,289.270 228.819 M245.031 235.328 C 245.031 235.891,245.091 236.120,245.165 235.839 C 245.238 235.558,245.238 235.099,245.165 234.818 C 245.091 234.536,245.031 234.766,245.031 235.328 M255.401 242.839 C 255.923 242.904,256.777 242.904,257.299 242.839 C 257.821 242.774,257.394 242.721,256.350 242.721 C 255.307 242.721,254.880 242.774,255.401 242.839 M292.336 242.840 C 292.938 242.903,293.923 242.903,294.526 242.840 C 295.128 242.777,294.635 242.726,293.431 242.726 C 292.226 242.726,291.734 242.777,292.336 242.840 M160.422 245.046 C 160.343 245.252,160.317 247.782,160.365 250.667 L 160.452 255.912 160.518 250.439 L 160.584 244.966 198.175 244.891 L 235.766 244.815 198.166 244.743 C 167.778 244.685,160.538 244.743,160.422 245.046 " stroke="none" fill="#6c6aa1" fill-rule="evenodd"></path><path id="path3" d="" stroke="none" fill="#8c8cb4" fill-rule="evenodd"></path><path id="path4" d="M259.492 180.644 C 259.856 180.714,260.381 180.712,260.660 180.639 C 260.939 180.565,260.642 180.508,260.000 180.512 C 259.358 180.515,259.129 180.575,259.492 180.644 M250.733 227.944 C 251.097 228.014,251.622 228.011,251.901 227.938 C 252.180 227.865,251.883 227.808,251.241 227.811 C 250.599 227.814,250.370 227.874,250.733 227.944 M260.511 228.522 C 260.792 228.596,261.252 228.596,261.533 228.522 C 261.814 228.449,261.584 228.389,261.022 228.389 C 260.460 228.389,260.230 228.449,260.511 228.522 M307.227 235.182 C 307.230 235.825,307.290 236.053,307.360 235.690 C 307.430 235.327,307.427 234.801,307.354 234.522 C 307.281 234.243,307.224 234.540,307.227 235.182 M270.876 242.554 C 272.682 242.605,275.639 242.605,277.445 242.554 C 279.252 242.502,277.774 242.461,274.161 242.461 C 270.547 242.461,269.069 242.502,270.876 242.554 M251.319 242.839 C 251.844 242.904,252.632 242.903,253.071 242.836 C 253.510 242.770,253.080 242.717,252.117 242.718 C 251.153 242.720,250.794 242.774,251.319 242.839 M297.883 242.840 C 298.485 242.903,299.471 242.903,300.073 242.840 C 300.675 242.777,300.182 242.726,298.978 242.726 C 297.774 242.726,297.281 242.777,297.883 242.840 M235.686 250.145 L 235.620 255.472 198.029 255.547 L 160.438 255.623 198.038 255.695 C 228.449 255.753,235.666 255.695,235.783 255.391 C 235.862 255.185,235.887 252.721,235.839 249.917 L 235.752 244.818 235.686 250.145 " stroke="none" fill="#9494bd" fill-rule="evenodd"></path></g></svg>