<svg id="svg" version="1.1" xmlns="http://www.w3.org/2000/svg" xmlns:xlink="http://www.w3.org/1999/xlink" width="400" height="400.9063444108761" viewBox="0, 0, 400,400.9063444108761"><g id="svgg"><path id="path0" d="M192.447 0.623 C 74.708 4.497,-14.542 111.253,2.286 228.083 C 18.297 339.237,123.498 415.517,234.139 396.197 C 348.939 376.150,422.326 261.740,392.724 148.963 C 370.773 65.334,293.997 3.375,209.063 0.748 C 206.322 0.663,202.923 0.552,201.511 0.501 C 200.098 0.451,196.020 0.505,192.447 0.623 M208.822 126.621 C 217.637 128.478,222.489 138.988,218.381 147.332 C 212.100 160.091,193.224 157.309,190.878 143.278 C 189.099 132.641,198.032 124.349,208.822 126.621 M187.311 167.674 C 194.825 168.247,210.945 167.990,217.749 167.187 L 219.335 167.000 219.335 208.256 L 219.335 249.513 220.015 250.301 C 221.265 251.750,225.616 252.047,233.233 251.202 C 240.932 250.348,241.151 250.341,243.038 250.889 C 250.988 253.201,251.599 265.912,243.940 269.659 L 242.282 270.471 207.131 270.458 C 172.340 270.444,171.968 270.438,170.770 269.827 C 163.799 266.271,164.500 252.786,171.762 250.753 C 173.190 250.353,173.220 250.353,185.650 251.083 C 192.707 251.498,195.742 251.238,196.945 250.118 L 197.583 249.523 197.583 218.731 L 197.583 187.939 196.299 187.575 C 194.942 187.191,188.160 187.057,182.753 187.309 C 176.150 187.616,172.539 183.718,172.869 176.640 C 173.153 170.532,176.827 166.762,182.024 167.245 C 182.855 167.322,185.234 167.515,187.311 167.674 M80.198 209.650 C 84.889 213.132,97.098 221.032,108.915 228.232 C 119.711 234.811,119.992 236.384,111.264 241.399 C 103.851 245.659,91.551 253.553,83.351 259.314 C 81.090 260.903,78.899 262.288,78.482 262.393 C 75.670 263.099,71.342 259.433,70.377 255.529 C 69.791 253.154,70.497 252.147,74.018 250.340 C 80.742 246.889,96.162 237.937,98.757 235.978 L 99.479 235.433 95.434 232.920 C 90.509 229.860,81.074 224.446,75.460 221.457 C 69.951 218.525,69.200 217.138,71.096 213.397 C 73.242 209.161,77.293 207.494,80.198 209.650 M154.619 274.245 L 154.532 276.888 136.405 276.888 L 118.278 276.888 118.191 274.245 L 118.103 271.601 136.405 271.601 L 154.706 271.601 154.619 274.245 " stroke="none" fill="#1f1b73" fill-rule="evenodd"></path><path id="path1" d="M202.522 126.615 C 187.696 129.092,186.738 150.985,201.286 154.858 C 210.740 157.375,219.610 150.570,219.626 140.785 C 219.642 131.488,211.873 125.052,202.522 126.615 M178.515 167.773 C 171.368 170.428,170.893 182.783,177.795 186.505 C 178.959 187.133,179.287 187.153,186.754 187.053 C 193.237 186.967,194.783 187.030,196.196 187.441 L 197.885 187.932 197.885 218.548 C 197.885 253.318,198.120 250.320,195.342 251.020 C 193.676 251.439,186.510 251.457,181.948 251.053 C 172.843 250.247,170.981 250.509,168.671 252.919 C 164.593 257.174,165.523 266.586,170.297 269.384 L 171.693 270.202 206.617 270.259 C 245.771 270.324,243.260 270.462,245.897 268.091 C 251.405 263.139,249.877 253.396,243.233 251.109 C 241.829 250.626,239.327 250.665,234.792 251.242 C 229.938 251.860,222.909 251.955,221.411 251.424 C 218.961 250.554,219.194 254.883,219.105 208.543 L 219.025 167.300 217.141 167.464 C 206.316 168.407,198.527 168.414,181.873 167.493 C 180.424 167.413,179.213 167.514,178.515 167.773 M74.753 209.645 C 71.226 211.668,69.218 216.801,71.190 218.750 C 71.499 219.055,74.063 220.551,76.888 222.073 C 86.538 227.273,99.392 234.942,99.394 235.500 C 99.397 236.142,85.572 244.395,76.344 249.258 C 70.069 252.567,69.413 253.560,71.128 257.168 C 73.654 262.483,77.398 263.427,82.193 259.956 C 88.830 255.152,102.396 246.407,110.876 241.466 C 119.106 236.670,119.222 234.712,111.550 230.028 C 98.504 222.062,86.291 214.235,81.758 210.935 C 78.223 208.361,77.291 208.189,74.753 209.645 M118.429 274.169 L 118.429 276.737 136.405 276.737 L 154.381 276.737 154.381 274.169 L 154.381 271.601 136.405 271.601 L 118.429 271.601 118.429 274.169 " stroke="none" fill="#fbfbfb" fill-rule="evenodd"></path><path id="path2" d="M180.740 167.278 C 181.031 167.354,181.507 167.354,181.798 167.278 C 182.088 167.202,181.850 167.140,181.269 167.140 C 180.687 167.140,180.449 167.202,180.740 167.278 M184.668 187.217 C 184.958 187.293,185.434 187.293,185.725 187.217 C 186.016 187.141,185.778 187.079,185.196 187.079 C 184.615 187.079,184.377 187.141,184.668 187.217 M197.728 218.429 C 197.728 235.128,197.765 241.960,197.810 233.610 C 197.854 225.261,197.854 211.597,197.810 203.248 C 197.765 194.898,197.728 201.730,197.728 218.429 M72.205 259.309 C 72.205 259.361,72.647 259.803,73.187 260.291 L 74.169 261.178 73.282 260.196 C 72.455 259.281,72.205 259.076,72.205 259.309 M249.321 260.272 C 249.324 260.937,249.386 261.173,249.458 260.797 C 249.531 260.421,249.528 259.877,249.452 259.589 C 249.377 259.300,249.318 259.607,249.321 260.272 M200.076 270.317 C 202.693 270.367,206.975 270.367,209.592 270.317 C 212.209 270.266,210.068 270.225,204.834 270.225 C 199.600 270.225,197.458 270.266,200.076 270.317 M177.421 270.610 C 177.880 270.679,178.560 270.677,178.932 270.605 C 179.303 270.534,178.927 270.477,178.097 270.479 C 177.266 270.481,176.962 270.540,177.421 270.610 M233.761 270.611 C 234.301 270.678,235.185 270.678,235.725 270.611 C 236.265 270.544,235.823 270.489,234.743 270.489 C 233.663 270.489,233.221 270.544,233.761 270.611 M118.258 274.169 L 118.278 276.888 136.405 276.888 L 154.532 276.888 154.552 274.169 L 154.571 271.450 154.464 274.094 L 154.357 276.737 136.405 276.737 L 118.453 276.737 118.345 274.094 L 118.238 271.450 118.258 274.169 " stroke="none" fill="#716fa7" fill-rule="evenodd"></path><path id="path3" d="M218.654 167.290 C 218.951 167.500,219.048 176.190,219.109 208.325 L 219.188 249.094 219.186 208.182 C 219.184 172.074,219.131 167.256,218.731 167.147 C 218.397 167.056,218.377 167.093,218.654 167.290 M197.071 168.201 C 198.866 168.255,201.721 168.255,203.415 168.201 C 205.109 168.147,203.640 168.103,200.151 168.104 C 196.662 168.104,195.276 168.148,197.071 168.201 M239.807 250.667 C 240.183 250.739,240.727 250.736,241.016 250.661 C 241.304 250.585,240.997 250.526,240.332 250.529 C 239.668 250.533,239.431 250.595,239.807 250.667 M225.008 251.883 C 225.719 251.947,226.806 251.946,227.425 251.881 C 228.044 251.816,227.462 251.764,226.133 251.765 C 224.804 251.766,224.297 251.819,225.008 251.883 M165.947 260.574 C 165.950 261.405,166.008 261.709,166.078 261.250 C 166.147 260.790,166.145 260.111,166.074 259.739 C 166.002 259.367,165.945 259.743,165.947 260.574 M188.002 270.314 C 188.963 270.374,190.459 270.374,191.325 270.313 C 192.192 270.252,191.405 270.203,189.577 270.204 C 187.749 270.204,187.040 270.254,188.002 270.314 M218.505 270.315 C 219.626 270.373,221.461 270.373,222.583 270.315 C 223.705 270.257,222.787 270.209,220.544 270.209 C 218.301 270.209,217.383 270.257,218.505 270.315 M173.943 270.606 C 174.316 270.678,174.928 270.678,175.302 270.606 C 175.676 270.534,175.370 270.475,174.622 270.475 C 173.875 270.475,173.569 270.534,173.943 270.606 M238.142 270.609 C 238.599 270.678,239.347 270.678,239.804 270.609 C 240.261 270.540,239.887 270.483,238.973 270.483 C 238.059 270.483,237.685 270.540,238.142 270.609 " stroke="none" fill="#8c8cb6" fill-rule="evenodd"></path><path id="path4" d="M193.433 270.307 C 193.892 270.377,194.572 270.375,194.944 270.303 C 195.315 270.232,194.940 270.175,194.109 270.177 C 193.278 270.179,192.974 270.238,193.433 270.307 M214.728 270.304 C 215.102 270.376,215.714 270.376,216.088 270.304 C 216.461 270.232,216.156 270.173,215.408 270.173 C 214.660 270.173,214.354 270.232,214.728 270.304 " stroke="none" fill="#8181b4" fill-rule="evenodd"></path></g></svg>