<svg id="svg" version="1.1" xmlns="http://www.w3.org/2000/svg" xmlns:xlink="http://www.w3.org/1999/xlink" width="400" height="420.845921450151" viewBox="0, 0, 400,420.845921450151"><g id="svgg"><path id="path0" d="M192.145 0.925 C 74.406 4.799,-14.844 111.555,1.984 228.385 C 17.995 339.539,123.196 415.819,233.837 396.499 C 348.637 376.452,422.024 262.042,392.422 149.266 C 370.470 65.636,293.695 3.677,208.761 1.050 C 206.020 0.965,202.621 0.854,201.208 0.803 C 199.796 0.753,195.718 0.807,192.145 0.925 M208.962 127.009 C 223.467 130.871,222.775 152.366,208.044 155.490 C 197.798 157.662,189.061 149.352,190.573 138.871 C 191.844 130.055,200.188 124.673,208.962 127.009 M187.009 167.973 C 194.489 168.550,210.631 168.293,217.447 167.489 L 219.033 167.302 219.033 208.535 C 219.033 249.129,219.042 249.779,219.630 250.526 C 220.814 252.031,225.245 252.357,232.931 251.504 C 240.630 250.650,240.849 250.643,242.735 251.191 C 250.690 253.504,251.296 266.215,243.630 269.965 L 241.965 270.780 206.822 270.763 C 172.038 270.747,171.667 270.741,170.468 270.129 C 163.492 266.570,164.198 253.088,171.468 251.052 C 172.916 250.647,174.938 250.697,184.894 251.383 C 192.003 251.874,196.177 251.420,197.039 250.064 C 197.167 249.863,197.274 235.870,197.276 218.969 L 197.281 188.241 195.997 187.877 C 194.640 187.493,187.857 187.360,182.451 187.611 C 179.352 187.755,179.198 187.732,177.475 186.850 C 168.758 182.392,172.104 166.602,181.571 167.521 C 182.485 167.609,184.932 167.813,187.009 167.973 M79.896 209.952 C 84.589 213.436,96.741 221.297,108.610 228.529 C 115.789 232.903,116.195 233.218,116.661 234.773 C 117.319 236.969,116.075 238.842,112.728 240.699 C 106.030 244.414,90.442 254.380,82.177 260.231 C 76.850 264.003,73.425 263.172,70.639 257.435 C 68.919 253.891,69.667 252.710,75.589 249.622 C 82.727 245.900,95.846 238.235,98.611 236.170 C 99.412 235.573,88.410 228.813,75.158 221.760 C 69.641 218.823,68.878 217.423,70.778 213.714 C 72.958 209.455,76.987 207.793,79.896 209.952 M154.317 274.547 L 154.230 277.190 136.103 277.190 L 117.976 277.190 117.889 274.547 L 117.801 271.903 136.103 271.903 L 154.404 271.903 154.317 274.547 " stroke="none" fill="#1f1b73" fill-rule="evenodd"></path><path id="path1" d="M202.402 126.907 C 187.232 129.140,186.461 152.100,201.450 155.252 C 215.747 158.260,225.307 141.743,215.452 131.060 C 212.294 127.638,207.595 126.142,202.402 126.907 M178.439 167.974 C 171.208 170.234,170.537 183.167,177.464 186.784 C 178.641 187.399,179.119 187.431,187.311 187.446 C 194.104 187.459,196.097 187.552,196.752 187.888 L 197.583 188.315 197.583 218.890 C 197.583 253.614,197.818 250.622,195.040 251.322 C 193.192 251.787,186.547 251.741,179.371 251.214 C 173.110 250.754,172.123 250.805,170.393 251.679 C 164.245 254.784,164.298 266.771,170.473 269.984 C 171.861 270.707,240.335 270.894,242.665 270.182 C 248.981 268.251,251.052 258.323,246.158 253.429 C 243.807 251.078,241.468 250.689,234.688 251.520 C 229.388 252.170,222.650 252.272,221.109 251.725 C 218.659 250.857,218.892 255.185,218.802 208.845 L 218.723 167.602 216.839 167.766 C 208.487 168.494,199.680 168.677,191.639 168.290 C 187.015 168.068,182.349 167.845,181.269 167.794 C 180.189 167.744,178.915 167.825,178.439 167.974 M74.451 209.947 C 70.928 211.968,68.907 217.126,70.888 219.039 C 71.197 219.338,74.305 221.142,77.795 223.048 C 88.529 228.912,99.090 235.242,99.092 235.813 C 99.095 236.443,85.342 244.657,76.133 249.525 C 69.746 252.902,69.108 253.856,70.826 257.470 C 73.353 262.787,77.097 263.729,81.891 260.256 C 88.763 255.276,104.164 245.420,113.237 240.196 C 115.770 238.737,116.614 237.620,116.615 235.721 C 116.617 233.820,115.634 232.979,107.855 228.223 C 97.387 221.824,86.661 214.944,82.342 211.858 C 77.793 208.608,77.085 208.437,74.451 209.947 M118.127 274.471 L 118.127 277.039 136.103 277.039 L 154.079 277.039 154.079 274.471 L 154.079 271.903 136.103 271.903 L 118.127 271.903 118.127 274.471 " stroke="none" fill="#fafafb" fill-rule="evenodd"></path><path id="path2" d="M200.534 168.497 C 201.077 168.564,201.893 168.563,202.347 168.494 C 202.801 168.425,202.356 168.370,201.360 168.372 C 200.363 168.373,199.991 168.430,200.534 168.497 M192.069 270.611 C 192.610 270.678,193.493 270.678,194.033 270.611 C 194.573 270.544,194.131 270.489,193.051 270.489 C 191.971 270.489,191.529 270.544,192.069 270.611 M215.030 270.611 C 215.570 270.678,216.454 270.678,216.994 270.611 C 217.534 270.544,217.092 270.489,216.012 270.489 C 214.932 270.489,214.490 270.544,215.030 270.611 " stroke="none" fill="#8c8cb8" fill-rule="evenodd"></path><path id="path3" d="M204.159 155.808 C 204.702 155.875,205.518 155.874,205.972 155.805 C 206.426 155.736,205.982 155.681,204.985 155.683 C 203.988 155.684,203.616 155.741,204.159 155.808 M180.291 167.585 C 180.666 167.658,181.210 167.655,181.499 167.579 C 181.788 167.504,181.480 167.444,180.816 167.448 C 180.151 167.451,179.915 167.513,180.291 167.585 M184.366 187.519 C 184.656 187.595,185.132 187.595,185.423 187.519 C 185.714 187.443,185.476 187.381,184.894 187.381 C 184.313 187.381,184.075 187.443,184.366 187.519 M197.426 218.731 C 197.426 235.431,197.463 242.262,197.507 233.912 C 197.552 225.563,197.552 211.900,197.507 203.550 C 197.463 195.200,197.426 202.032,197.426 218.731 M71.903 259.611 C 71.903 259.663,72.345 260.105,72.885 260.593 L 73.867 261.480 72.980 260.498 C 72.153 259.583,71.903 259.378,71.903 259.611 M249.019 260.574 C 249.022 261.239,249.084 261.475,249.156 261.099 C 249.229 260.723,249.226 260.180,249.150 259.891 C 249.075 259.602,249.015 259.909,249.019 260.574 M199.622 270.619 C 202.323 270.669,206.741 270.669,209.441 270.619 C 212.141 270.569,209.932 270.528,204.532 270.528 C 199.131 270.528,196.922 270.569,199.622 270.619 M177.115 270.911 C 177.572 270.980,178.319 270.980,178.776 270.911 C 179.233 270.842,178.860 270.785,177.946 270.785 C 177.032 270.785,176.658 270.842,177.115 270.911 M233.150 270.913 C 233.687 270.980,234.638 270.981,235.265 270.915 C 235.892 270.850,235.453 270.795,234.290 270.794 C 233.127 270.793,232.614 270.846,233.150 270.913 M117.956 274.471 L 117.976 277.190 136.103 277.190 L 154.230 277.190 154.249 274.471 L 154.269 271.752 154.162 274.396 L 154.055 277.039 136.103 277.039 L 118.150 277.039 118.043 274.396 L 117.936 271.752 117.956 274.471 " stroke="none" fill="#6a69a2" fill-rule="evenodd"></path><path id="path4" d="M218.352 167.592 C 218.649 167.803,218.746 176.492,218.807 208.627 L 218.885 249.396 218.884 208.484 C 218.882 172.376,218.829 167.558,218.429 167.449 C 218.095 167.358,218.075 167.396,218.352 167.592 M194.951 168.502 C 195.912 168.562,197.408 168.561,198.274 168.500 C 199.140 168.439,198.353 168.390,196.526 168.391 C 194.698 168.392,193.989 168.441,194.951 168.502 M203.701 168.494 C 204.158 168.564,204.906 168.564,205.363 168.494 C 205.819 168.425,205.446 168.368,204.532 168.368 C 203.618 168.368,203.244 168.425,203.701 168.494 M239.350 250.964 C 239.641 251.040,240.117 251.040,240.408 250.964 C 240.699 250.888,240.461 250.825,239.879 250.825 C 239.298 250.825,239.060 250.888,239.350 250.964 M226.514 252.177 C 226.890 252.250,227.434 252.247,227.723 252.171 C 228.011 252.096,227.704 252.037,227.039 252.040 C 226.375 252.043,226.138 252.105,226.514 252.177 M165.645 260.876 C 165.648 261.707,165.706 262.011,165.776 261.552 C 165.845 261.093,165.843 260.413,165.772 260.041 C 165.700 259.670,165.643 260.045,165.645 260.876 M186.944 270.616 C 187.822 270.677,189.181 270.676,189.965 270.614 C 190.749 270.552,190.030 270.502,188.369 270.503 C 186.707 270.504,186.066 270.555,186.944 270.616 M219.411 270.616 C 220.366 270.676,221.930 270.676,222.885 270.616 C 223.841 270.556,223.059 270.507,221.148 270.507 C 219.237 270.507,218.455 270.556,219.411 270.616 M173.644 270.909 C 174.020 270.981,174.564 270.978,174.852 270.902 C 175.141 270.827,174.834 270.768,174.169 270.771 C 173.505 270.774,173.268 270.836,173.644 270.909 M238.293 270.908 C 238.667 270.980,239.279 270.980,239.653 270.908 C 240.026 270.836,239.721 270.777,238.973 270.777 C 238.225 270.777,237.919 270.836,238.293 270.908 " stroke="none" fill="#9794be" fill-rule="evenodd"></path></g></svg>