<?xml version="1.0" encoding="UTF-8"?>
<svg xmlns="http://www.w3.org/2000/svg" xmlns:xlink="http://www.w3.org/1999/xlink" width="407px" height="407px" viewBox="0 0 407 407" version="1.1">
<g id="surface1">
<path style=" stroke:none;fill-rule:evenodd;fill:rgb(11.764706%,10.196079%,44.313726%);fill-opacity:1;" d="M 192.023438 0.628906 C 74.664062 6.332031 -12.546875 115.304688 5.238281 234.019531 C 21.480469 342.4375 119.5 418.292969 225.929688 404.804688 C 332.722656 391.269531 409.527344 293.082031 399.109375 183.414062 C 388.925781 76.222656 297.476562 -4.496094 192.023438 0.628906 M 282.386719 141.179688 C 287.152344 142.433594 290.28125 146.75 290.304688 152.109375 C 290.371094 166.828125 268.996094 167.417969 268.328125 152.71875 C 267.953125 144.492188 274.511719 139.109375 282.386719 141.179688 M 103.550781 156.828125 C 103.988281 157 105.566406 158.078125 107.058594 159.222656 C 112.902344 163.710938 134.933594 178.214844 151.214844 188.28125 C 160.242188 193.867188 161.324219 194.839844 161.78125 197.769531 C 162.253906 200.78125 160.25 203.164062 154.441406 206.488281 C 143.171875 212.945312 121.523438 227.136719 109.175781 236.164062 C 106.726562 237.957031 104.152344 239.59375 103.457031 239.804688 C 98.445312 241.335938 90.90625 233.992188 90.90625 227.582031 C 90.90625 224.609375 91.296875 224.195312 97.070312 221.105469 C 111.585938 213.332031 134.445312 199.515625 134.789062 198.308594 C 134.996094 197.574219 112.996094 184.257812 98.628906 176.421875 C 91.105469 172.316406 90.769531 171.957031 90.953125 168.25 C 91.273438 161.78125 98.78125 154.972656 103.550781 156.828125 M 289.949219 204.253906 C 289.949219 224.5 290.058594 236.386719 290.242188 236.742188 C 290.933594 238.066406 295.449219 238.351562 302.140625 237.496094 C 307.628906 236.792969 309.664062 237.386719 311.457031 240.210938 C 314.265625 244.640625 312.203125 251.308594 307.660156 252.488281 C 307.152344 252.617188 294.792969 252.707031 280.199219 252.683594 L 253.660156 252.640625 L 252.421875 251.761719 C 248.710938 249.136719 248.363281 241.683594 251.808594 238.585938 C 253.472656 237.089844 254.558594 236.917969 259.863281 237.316406 C 269.265625 238.019531 272.777344 237.738281 273.335938 236.238281 C 273.496094 235.804688 273.609375 225.773438 273.609375 212.128906 L 273.609375 188.757812 L 272.378906 188.417969 C 271.601562 188.203125 268.988281 188.113281 265.324219 188.175781 L 259.5 188.277344 L 258.140625 187.457031 C 253.398438 184.609375 253.367188 176.15625 258.085938 173.324219 L 259.398438 172.539062 L 266.832031 172.933594 C 275.355469 173.382812 282.320312 173.207031 289.578125 172.363281 C 289.875 172.332031 289.949219 178.886719 289.949219 204.253906 M 239.972656 260.535156 L 240.054688 266.230469 L 163.097656 266.230469 L 163.097656 260.660156 C 163.097656 257.597656 163.1875 254.996094 163.296875 254.886719 C 163.40625 254.773438 180.683594 254.714844 201.695312 254.757812 L 239.890625 254.835938 L 239.972656 260.535156 "/>
<path style=" stroke:none;fill-rule:evenodd;fill:rgb(98.431373%,98.431373%,98.431373%);fill-opacity:1;" d="M 275.175781 141.59375 C 265.714844 145.179688 266.28125 160.289062 275.976562 162.90625 C 284.875 165.308594 292.339844 157.433594 289.640625 148.492188 C 287.867188 142.625 281.046875 139.371094 275.175781 141.59375 M 98.332031 157.628906 C 93.71875 159.933594 90.109375 166.347656 91.167969 170.359375 C 91.652344 172.199219 92.53125 172.867188 99.722656 176.847656 C 115.699219 185.695312 135.023438 197.445312 135.023438 198.3125 C 135.023438 199.367188 112.636719 212.929688 97.652344 220.953125 C 94.027344 222.890625 92.164062 224.066406 91.734375 224.683594 C 88.582031 229.214844 95.179688 239.257812 101.625 239.734375 C 103.707031 239.886719 104.042969 239.714844 109.769531 235.542969 C 122.195312 226.5 147.621094 209.910156 155.90625 205.445312 C 160.628906 202.898438 162.558594 199.539062 161.199219 196.214844 C 160.523438 194.554688 159.007812 193.296875 153.871094 190.125 C 135.273438 178.644531 114.558594 165.050781 107.113281 159.4375 C 103.160156 156.457031 101.398438 156.09375 98.332031 157.628906 M 258.945312 173.066406 C 253.707031 175.003906 253.28125 184.660156 258.3125 187.464844 C 259.058594 187.882812 260.253906 187.964844 265.738281 187.96875 C 270.507812 187.972656 272.453125 188.078125 272.941406 188.363281 L 273.609375 188.753906 L 273.609375 212.578125 C 273.609375 238.695312 273.722656 237.058594 271.882812 237.589844 C 270.816406 237.894531 265.703125 237.875 259.320312 237.542969 C 254.207031 237.277344 254.0625 237.289062 252.90625 237.953125 C 248.777344 240.328125 248.433594 248.316406 252.324219 251.476562 L 253.464844 252.40625 L 308.019531 252.40625 L 309.300781 251.484375 C 314.75 247.566406 313.027344 237.957031 306.78125 237.429688 C 305.894531 237.351562 304.054688 237.445312 302.6875 237.636719 C 298.515625 238.210938 293.496094 238.382812 292.117188 238 C 289.75 237.335938 289.949219 240.441406 289.949219 204.65625 L 289.949219 172.601562 L 287.203125 172.84375 C 283.746094 173.144531 266.683594 173.15625 262.914062 172.859375 C 260.792969 172.695312 259.808594 172.742188 258.945312 173.066406 M 163.394531 260.457031 L 163.394531 265.929688 L 239.742188 265.929688 L 239.742188 254.988281 L 163.394531 254.988281 L 163.394531 260.457031 "/>
<path style=" stroke:none;fill-rule:evenodd;fill:rgb(42.352942%,41.568628%,63.137257%);fill-opacity:1;" d="M 268.042969 173.140625 C 268.328125 173.214844 268.796875 173.214844 269.082031 173.140625 C 269.367188 173.0625 269.132812 173 268.5625 173 C 267.988281 173 267.753906 173.0625 268.042969 173.140625 M 267.296875 188.035156 C 267.664062 188.109375 268.265625 188.109375 268.636719 188.035156 C 269.003906 187.964844 268.703125 187.902344 267.964844 187.902344 C 267.230469 187.902344 266.929688 187.964844 267.296875 188.035156 M 267.742188 237.875 C 268.03125 237.949219 268.496094 237.949219 268.785156 237.875 C 269.070312 237.796875 268.835938 237.734375 268.265625 237.734375 C 267.691406 237.734375 267.457031 237.796875 267.742188 237.875 M 294.332031 238.183594 C 294.699219 238.253906 295.300781 238.253906 295.667969 238.183594 C 296.035156 238.109375 295.738281 238.050781 295 238.050781 C 294.265625 238.050781 293.964844 238.109375 294.332031 238.183594 M 249.320312 244.957031 C 249.320312 245.542969 249.378906 245.78125 249.457031 245.488281 C 249.53125 245.195312 249.53125 244.71875 249.457031 244.425781 C 249.378906 244.132812 249.320312 244.371094 249.320312 244.957031 M 259.871094 252.777344 C 260.402344 252.84375 261.269531 252.84375 261.800781 252.777344 C 262.332031 252.707031 261.898438 252.652344 260.835938 252.652344 C 259.773438 252.652344 259.339844 252.707031 259.871094 252.777344 M 297.453125 252.777344 C 298.0625 252.84375 299.066406 252.84375 299.679688 252.777344 C 300.292969 252.710938 299.792969 252.660156 298.566406 252.660156 C 297.339844 252.660156 296.839844 252.710938 297.453125 252.777344 M 163.230469 255.074219 C 163.148438 255.289062 163.121094 257.921875 163.171875 260.925781 L 163.261719 266.382812 L 163.328125 260.6875 L 163.394531 254.988281 L 201.644531 254.914062 L 239.890625 254.832031 L 201.632812 254.757812 C 170.714844 254.699219 163.347656 254.757812 163.230469 255.074219 "/>
<path style=" stroke:none;fill-rule:evenodd;fill:rgb(58.039218%,58.039218%,74.117649%);fill-opacity:1;" d="M 264.03125 188.035156 C 264.402344 188.109375 264.9375 188.105469 265.222656 188.03125 C 265.503906 187.953125 265.203125 187.894531 264.550781 187.898438 C 263.898438 187.902344 263.664062 187.964844 264.03125 188.035156 M 255.121094 237.273438 C 255.492188 237.34375 256.023438 237.339844 256.308594 237.265625 C 256.59375 237.1875 256.289062 237.128906 255.636719 237.132812 C 254.984375 237.136719 254.75 237.199219 255.121094 237.273438 M 265.070312 237.875 C 265.355469 237.949219 265.824219 237.949219 266.109375 237.875 C 266.394531 237.796875 266.160156 237.734375 265.589844 237.734375 C 265.019531 237.734375 264.785156 237.796875 265.070312 237.875 M 312.601562 244.804688 C 312.605469 245.476562 312.667969 245.710938 312.738281 245.335938 C 312.808594 244.957031 312.808594 244.410156 312.734375 244.117188 C 312.660156 243.828125 312.601562 244.136719 312.601562 244.804688 M 275.617188 252.480469 C 277.453125 252.53125 280.460938 252.53125 282.300781 252.480469 C 284.140625 252.425781 282.636719 252.382812 278.957031 252.382812 C 275.28125 252.382812 273.777344 252.425781 275.617188 252.480469 M 255.71875 252.777344 C 256.25 252.84375 257.054688 252.84375 257.5 252.773438 C 257.945312 252.703125 257.507812 252.648438 256.527344 252.648438 C 255.546875 252.652344 255.183594 252.707031 255.71875 252.777344 M 303.097656 252.777344 C 303.707031 252.84375 304.710938 252.84375 305.324219 252.777344 C 305.9375 252.710938 305.433594 252.660156 304.210938 252.660156 C 302.984375 252.660156 302.484375 252.710938 303.097656 252.777344 M 239.808594 260.382812 L 239.742188 265.925781 L 201.496094 266.003906 L 163.246094 266.082031 L 201.503906 266.160156 C 232.445312 266.21875 239.789062 266.160156 239.910156 265.839844 C 239.988281 265.628906 240.015625 263.0625 239.964844 260.144531 L 239.878906 254.835938 L 239.808594 260.382812 "/>
</g>
</svg>
